<svg width="39" height="620" viewBox="0 0 39 620" fill="none" xmlns="http://www.w3.org/2000/svg">
<g mask="url(#mask0_6614_125365)">
<path fill-rule="evenodd" clip-rule="evenodd" d="M13 170H8V450H13V358C13 352.102 16.382 349.27 19.8214 346.389C23.3799 343.409 27 340.377 27 333.845V285.845C27 279.748 23.4775 276.787 19.9663 273.836C16.4776 270.904 13 267.981 13 262V170Z" fill="#F5F5F5"/>
</g>
<mask id="mask1_6614_125365" style="mask-type:alpha" maskUnits="userSpaceOnUse" x="12" y="170" width="15" height="280">
<path d="M12 450V358C12 351.635 15.7052 348.532 19.1159 345.675L19.1793 345.622C22.7358 342.644 26 339.878 26 333.845V285.845C26 280.254 22.846 277.563 19.3229 274.601L19.2567 274.546C15.7999 271.641 12 268.447 12 262V170H13V262C13 267.981 16.4776 270.904 19.9663 273.836C23.4775 276.787 27 279.748 27 285.845V333.845C27 340.377 23.3799 343.409 19.8214 346.389C16.382 349.27 13 352.102 13 358V450H12Z" fill="url(#paint1_linear_6614_125365)"/>
</mask>
<g mask="url(#mask1_6614_125365)">
<g filter="url(#filter0_dd_6614_125365)">
<path d="M12 450V358C12 351.635 15.7052 348.532 19.1159 345.675L19.1793 345.622C22.7358 342.644 26 339.878 26 333.845V285.845C26 280.254 22.846 277.563 19.3229 274.601L19.2567 274.546C15.7999 271.641 12 268.447 12 262V170H13V262C13 267.981 16.4776 270.904 19.9663 273.836C23.4775 276.787 27 279.748 27 285.845V333.845C27 340.377 23.3799 343.409 19.8214 346.389C16.382 349.27 13 352.102 13 358V450H12Z" fill="#E3E3E3"/>
</g>
</g>
<defs>
<filter id="filter0_dd_6614_125365" x="0" y="162" width="39" height="304" filterUnits="userSpaceOnUse" color-interpolation-filters="sRGB">
<feFlood flood-opacity="0" result="BackgroundImageFix"/>
<feColorMatrix in="SourceAlpha" type="matrix" values="0 0 0 0 0 0 0 0 0 0 0 0 0 0 0 0 0 0 127 0" result="hardAlpha"/>
<feOffset dy="4"/>
<feGaussianBlur stdDeviation="6"/>
<feComposite in2="hardAlpha" operator="out"/>
<feColorMatrix type="matrix" values="0 0 0 0 0 0 0 0 0 0 0 0 0 0 0 0 0 0 0.05 0"/>
<feBlend mode="normal" in2="BackgroundImageFix" result="effect1_dropShadow_6614_125365"/>
<feColorMatrix in="SourceAlpha" type="matrix" values="0 0 0 0 0 0 0 0 0 0 0 0 0 0 0 0 0 0 127 0" result="hardAlpha"/>
<feOffset/>
<feGaussianBlur stdDeviation="0.5"/>
<feComposite in2="hardAlpha" operator="out"/>
<feColorMatrix type="matrix" values="0 0 0 0 0 0 0 0 0 0 0 0 0 0 0 0 0 0 0.25 0"/>
<feBlend mode="normal" in2="effect1_dropShadow_6614_125365" result="effect2_dropShadow_6614_125365"/>
<feBlend mode="normal" in="SourceGraphic" in2="effect2_dropShadow_6614_125365" result="shape"/>
</filter>
<linearGradient id="paint0_linear_6614_125365" x1="22" y1="170" x2="22" y2="450" gradientUnits="userSpaceOnUse">
<stop stop-color="#C4C4C4" stop-opacity="0"/>
<stop offset="0.333333" stop-color="#C4C4C4"/>
<stop offset="0.666667" stop-color="#C4C4C4"/>
<stop offset="1" stop-color="#C4C4C4" stop-opacity="0"/>
</linearGradient>
<linearGradient id="paint1_linear_6614_125365" x1="19.5" y1="170" x2="19.5" y2="450" gradientUnits="userSpaceOnUse">
<stop stop-opacity="0"/>
<stop offset="0.338542" stop-color="#525252"/>
<stop offset="0.65625" stop-color="#525252"/>
<stop offset="1" stop-opacity="0"/>
</linearGradient>
<clipPath id="clip0_6614_125365">
<rect width="16" height="280" fill="white" transform="translate(13 170)"/>
</clipPath>
</defs>
</svg>
