<svg width="116" height="34" viewBox="0 0 116 34" fill="none" xmlns="http://www.w3.org/2000/svg">
<path fill-rule="evenodd" clip-rule="evenodd" d="M95.6461 13.5742V11.9495H87.9165V10.3822C88.6101 10.3622 89.2444 10.3447 89.8068 10.3247C92.1851 10.2297 93.7385 9.90973 94.5238 9.70226V8.0025L94.5139 8.005C94.338 8.06499 92.802 8.58992 89.7523 8.6999C86.4572 8.82739 80.0778 8.81489 79.5972 8.81239H79.5699V10.4372H80.3379C81.537 10.4372 83.9872 10.4372 86.3284 10.3997V11.9495H78.522V13.5742H83.0706C81.0861 15.0465 79.29 15.7089 78.5418 15.9339V17.6337C78.8985 17.5587 82.2679 16.7088 85.5976 13.5917H86.3284V17.2362H87.9388V13.5742H88.8381C92.2446 16.7663 95.6511 17.6262 95.8369 17.6712H95.8394V17.6512V15.9889C95.0912 15.7439 93.3124 15.064 91.3477 13.5717H95.6461V13.5742ZM50.1625 21.1282H56.8814V19.5034H49.3202H49.283V17.8236H56.9012V16.1989H49.2657V14.5941H56.2472V12.9693H49.2657V11.4395H56.8839V9.81475H54.1314L54.8251 8.39744H53.0289L52.3352 9.81475H44.3058L43.6121 8.39744H41.816L42.5072 9.81475H40V11.4395H47.6553V12.9693H40.6739V14.5941H47.6752V16.1989H40V17.8236H47.6553V19.5034H40V21.1282H46.7015C45.2027 22.488 42.3214 23.6578 40.0198 24.3002V25.98C41.593 25.5651 46.4017 24.1303 48.406 21.6556C50.4648 24.0728 55.4816 25.6026 56.8863 26V24.3002C56.812 24.2752 56.7327 24.2502 56.646 24.2227H56.6435C55.8706 23.9703 54.674 23.5828 53.4774 23.0554C51.8274 22.3355 50.7992 21.6756 50.1625 21.1282ZM58.96 25.8125H73.2029C74.8875 25.8125 76.2551 24.4352 76.2551 22.7355V8.75739H58.96V25.8125ZM60.5678 10.3822H74.6423V22.733C74.6423 23.5253 73.9882 24.1878 73.2004 24.1878H60.5654V10.3822H60.5678ZM73.9535 17.0687V18.731C71.5008 18.2411 69.1621 17.3912 67.3833 16.6163C64.3311 17.9561 61.7867 18.3911 61.1699 18.486V16.8438C61.8239 16.7313 63.3971 16.4088 65.3444 15.6914C64.6333 15.334 64.1849 15.0865 64.1279 15.049L64.9133 13.6317C64.9331 13.6517 65.8869 14.1791 67.366 14.839C68.357 14.3666 69.4074 13.8017 70.4182 13.1193H64.4277C63.791 13.8567 62.8942 14.6691 61.6753 15.3665V13.4217C62.9288 12.5144 63.677 11.5145 64.071 10.8721H65.8869C65.8522 10.9746 65.7581 11.1546 65.6293 11.3995L65.5872 11.477H73.1112V13.1018C71.8749 14.1391 70.604 14.9715 69.3479 15.6514C70.7328 16.1814 72.3234 16.7088 73.9535 17.0687ZM64.2741 19.6559C64.3137 19.6584 64.3608 19.6634 64.4203 19.6684C65.3543 19.7484 68.7013 20.0283 70.9558 20.5633V18.901C68.4585 18.3711 65.1462 18.1036 64.4128 18.0436C64.3385 18.0386 64.2914 18.0336 64.2741 18.0311V19.6559ZM72.5116 23.4704C68.3371 22.583 63.677 22.318 62.852 22.2805V20.6557C63.4689 20.6732 68.1117 20.9007 72.5116 21.8081V23.4704ZM79.9614 17.9736H91.8655L91.2115 20.1083H94.9376V23.3954C94.9376 24.7352 93.8698 25.8125 92.5419 25.8125H89.9777V24.1878H92.5419C92.9729 24.1878 93.3272 23.8303 93.3272 23.3954V21.7331H89.0189L89.6755 19.5984H84.396C84.1532 20.9007 83.4224 23.1679 81.1778 25.8125H78.9877C81.589 23.1879 82.4512 20.8832 82.751 19.5984H79.9614V17.9736ZM111.031 17.9736H99.1269V19.5984H101.934C101.654 20.8832 100.792 23.1479 98.1533 25.8125H100.343C102.59 23.1679 103.319 20.9032 103.564 19.5984H108.844L108.189 21.7331H112.495V23.3954C112.495 23.8303 112.141 24.1878 111.71 24.1878H109.146V25.8125H111.71C113.038 25.8125 114.106 24.7352 114.106 23.3954V20.1083H110.38L111.031 17.9736ZM114.812 13.5742H110.489C112.453 15.0665 114.232 15.7464 115 15.9914V17.6537V17.6737H114.998C114.814 17.6287 111.408 16.7688 107.999 13.5767H107.099V17.2412H105.489V13.5917H104.758C101.426 16.7088 98.0567 17.5587 97.7024 17.6337V15.9339C98.4506 15.7064 100.249 15.0465 102.231 13.5742H97.6826V11.9495H105.489V10.3997C103.15 10.4372 100.698 10.4372 99.4986 10.4372H98.7305V8.81239H98.7578C99.2384 8.81239 105.615 8.82739 108.913 8.6999C112.002 8.58742 113.536 8.05749 113.687 8V9.69976C112.902 9.90724 111.348 10.2272 108.97 10.3222C108.408 10.3397 107.773 10.3597 107.08 10.3797V11.947H114.809V13.5742H114.812Z" fill="#0F0F0F"/>
<circle cx="16" cy="17" r="15.25" fill="url(#paint0_linear_1_259)" stroke="url(#paint1_linear_1_259)" stroke-width="1.5"/>
<path d="M27 13.3394C27 13.0906 26.7104 12.9203 26.4642 13.0382L20.6423 15.6441C20.3816 15.762 20.092 15.5917 20.092 15.3298V14.9894C20.092 14.2822 19.6865 13.6144 19.0058 13.2739C18.3396 12.9334 17.5286 12.9334 16.8624 13.2739L13.7053 14.9239C13.1694 15.1989 12.5322 15.2774 11.9384 15.1334L9.92542 14.6358C9.23027 14.4656 8.49167 14.5965 7.91238 14.9894C7.33309 15.3822 7 15.9846 7 16.6393V20.6595C7 20.8429 7.1593 21 7.37654 21H8.78132C8.98407 21 9.15786 20.8429 9.15786 20.6595L9.14337 17.137C9.14337 16.7703 9.53439 16.5084 9.91093 16.6131L11.3592 17.006C12.5033 17.2941 13.7487 17.137 14.777 16.6001L17.21 15.3167C17.5286 15.1465 17.9341 15.356 17.9341 15.6965V16.1941C17.9341 16.8227 18.2817 17.4119 18.8755 17.7262C19.4403 18.0274 20.1354 18.0405 20.7147 17.7655L22.2788 17.0715C22.5974 16.9274 22.9594 17.137 22.9594 17.4512V20.6595C22.9594 20.8429 23.1188 21 23.336 21H24.7408C24.9435 21 25.1173 20.856 25.1173 20.6595V16.3643C25.1173 16.0239 25.3345 15.7096 25.6676 15.5655L26.7828 15.081C26.9131 15.0286 26.9855 14.9108 26.9855 14.7798L27 13.3394Z" fill="white"/>
<defs>
<linearGradient id="paint0_linear_1_259" x1="29.8696" y1="30.8719" x2="2.12811" y2="3.13281" gradientUnits="userSpaceOnUse">
<stop stop-color="#FF5F3D"/>
<stop offset="1" stop-color="#FF1383"/>
</linearGradient>
<linearGradient id="paint1_linear_1_259" x1="16" y1="1" x2="16" y2="33" gradientUnits="userSpaceOnUse">
<stop stop-color="white"/>
<stop offset="1" stop-color="#F9F8F8"/>
</linearGradient>
</defs>
</svg>
